<svg style="height:100px;width:100px" version="1.1" viewBox="0 0 512 512" xmlns="http://www.w3.org/2000/svg"><circle cx="256" cy="256" r="256" fill="#120d08"/><g class="" transform="translate(0)" style=""><path d="M256 16C123.5 16 16 123.5 16 256c0 132.6 107.5 240 240 240 132.6 0 240-107.4 240-240S388.6 16 256 16zm0 60c99.4 0 180 80.6 180 180s-80.6 180-180 180S76 355.4 76 256 156.6 76 256 76zm91.3 64.2c-6.5 0-12.5 2.4-16.8 8.2-52 70.1-69 96.5-106 169.8-8.4-11.1-65.6-72.4-93.9-94.1-14.2-10.9-41.3 27.2-31.6 37.1C142.6 306.1 220.1 406 232.7 405c21.4-1.7 75.1-136.8 148.8-233.7 8-10.4-15-31.3-34.2-31.1z" fill="#ccb200"/></g><path d="m227.83 402.39c-4.4303-2.8796-22.315-20.838-34.785-34.928-5.6349-6.3669-20.625-23.632-33.311-38.367-27.807-32.298-43.132-49.712-53.823-61.161-8.8891-9.5195-9.4063-10.596-8.0364-16.717 2.2802-10.189 13.253-23.942 22.027-27.608 2.884-1.205 6.6261-1.3134 8.6344-0.2502 9.4971 5.0279 60.172 54.628 87.753 85.891 3.3702 3.8202 6.6643 7.5095 7.3203 8.1985 1.1582 1.2166 1.3398 0.95871 6.2895-8.9302 21.588-43.13 41.619-76.998 66.471-112.38 13.084-18.631 34.516-47.719 36.963-50.169 3.8518-3.8555 7.3988-5.0737 14.612-5.0186 7.0457 0.0539 12.172 1.5883 18.896 5.6559 10.295 6.2277 17.522 16.238 15.633 21.654-0.33818 0.9701-3.8685 6.2253-7.8452 11.678-25.916 35.536-45.45 67.601-87.041 142.88-27.376 49.547-34.69 61.767-43.516 72.699-4.2914 5.3156-9.0273 8.9964-11.575 8.9964-0.77595 0-2.8758-0.95221-4.6664-2.116z" style="fill:#4e9a06;stroke-width:8.401"/></svg>
