<?xml version="1.0" encoding="UTF-8" standalone="no"?>
<!-- Created with Inkscape (http://www.inkscape.org/) -->
<svg>
  <g
     inkscape:label="Layer 1"
     inkscape:groupmode="layer"
     id="layer1">
    <path
       d="m 3.6650761,26.762291 c -4.993061,4.923774 -4.771706,-9.370241 -0.656848,-9.51854 -3.14560502,5.913123 7.4258729,12.725974 8.7633059,4.619805 0.122362,-4.299236 -6.1844109,-5.816484 -7.1011619,-5.79219 -3.180552,-4.085108 -7.575701,-12.5282889 0.156201,-15.3455949 3.719349,-0.973502 8.3759739,0.81942 10.5496089,-0.427118 1.068075,2.316653 0.309237,10.5091509 -2.182817,7.609602 1.585897,-7.785201 -12.0381869,-5.105784 -5.4820719,0.562222 1.843973,2.8584609 5.0158979,-0.801009 4.4126929,3.0900369 4.585993,2.940985 7.128906,10.823913 1.995825,14.589428 -2.970737,2.28097 -7.2630509,2.381101 -10.4547349,0.612349 z M 2.5756711,5.6506571 c -1.67248902,3.359042 3.380462,8.9646089 5.07454,9.0478439 3.6037979,0.603335 5.8623199,7.006131 6.2320369,7.356819 1.060247,-5.30661 -4.8608699,-7.09851 -7.7409869,-10.008031 -1.73145,-1.631513 -3.5712,-3.7428069 -3.56559,-6.3966319 z M 29.890912,24.896936 c -0.498923,-3.32253 3.670296,-5.23849 3.083975,-0.876019 -2.33126,6.58286 -13.068789,4.235745 -12.071575,-3.151056 -0.116721,-3.646996 -1.683715,-3.853327 0,-7.374822 1.303035,-3.8976699 -5.378953,-2.915278 -1.0854,-5.8569949 2.736004,0.965628 0.964706,-6.647264 4.497803,-4.619803 1.967954,-5.6667307 2.316833,0.370947 2.002584,3.028929 -0.670073,3.02734 3.205542,1.108194 4.82588,1.643174 2.085729,3.2075249 -3.812161,1.891818 -4.82588,2.7460179 0.142442,4.606388 -0.32476,9.280632 0.316408,13.832979 0.392389,1.533451 2.354639,1.659059 3.256205,0.627595 z m -7.449611,-2.074553 c 1.466847,-4.100611 1.410455,-11.930808 1e-6,-14.7743729 -0.256129,2.7762519 0.572616,5.9143889 -0.536696,8.4373959 -0.544943,0.414899 1.1605,4.064042 0.536695,6.336977 z M 47.93018,22.177354 c 5.492964,-1.934613 0.187889,7.376374 -3.668728,5.664707 -5.995489,1.146605 -8.870061,-5.289049 -10.201162,-10.201704 -0.219695,-2.544293 2.774889,-10.5239309 7.72897,-10.8129569 4.636393,-1.129397 9.455271,3.4236959 9.008622,8.5858629 1.485536,3.457082 -4.010407,2.49446 -6.047236,3.320467 -2.082002,0.477486 -5.406442,-0.04659 -4.199982,3.373891 0.163452,4.306581 7.857118,4.739753 7.379516,0.06973 z m -2.803616,-5.630932 c -0.178221,-2.678599 1.065649,-8.3359229 -3.075962,-7.2522209 -1.510413,1.0069179 -2.973225,8.5738819 -0.208964,7.8315469 1.094976,-0.193109 2.189951,-0.386217 3.284926,-0.579326 z m 2.371064,-0.435831 c 0.216303,-5.056442 -1.554015,-5.546742 -0.993283,-0.772649 -0.16199,1.18915 0.06757,0.941182 0.993283,0.772649 z m -9.628425,6.711792 c -0.606127,-3.69418 -0.481739,-7.884149 4e-6,-11.610527 -2.505807,4.586033 -2.404867,7.074032 -4e-6,11.610527 z m 26.77054,2.963648 c -4.14089,6.179954 -14.505005,-1.878082 -10.669761,-6.43286 1.064321,-5.869902 10.404349,-0.549073 10.157103,-6.495298 1.966231,-5.9043959 -8.474503,-3.8976609 -3.925063,-0.79179 -1.141273,2.733467 -5.648353,2.870464 -5.603233,-0.03922 1.532414,-6.2001919 10.747927,-7.2053089 14.155013,-2.5005779 0.474148,2.5849769 1.396939,7.2461449 1.673408,7.9702529 -1.257818,2.103908 -1.703886,6.872554 0.428553,8.359231 4.605959,1.656255 -6.557549,3.323514 -6.21602,-0.06974 z m 1.009306,-2.963648 c 1.624183,-2.483729 1.249635,-10.946301 5.2e-5,-10.86033 -1.7e-5,3.62011 -3.5e-5,7.240219 -5.2e-5,10.86033 z m -5.91163,-1.237759 c 1.065745,7.548182 5.856807,1.22866 4.389666,-3.132393 0.915874,-3.768309 -5.90721,0.683939 -4.389666,3.132393 z M 57.334321,25.5071 c -1.850144,-2.440813 1.339488,-11.575215 -1.762295,-4.881304 -1.925751,0.655644 0.951882,3.391715 1.762295,4.881304 z m 19.817568,1.725889 c -2.194872,2.37416 -5.477962,-2.343262 -1.558015,-1.64744 0.655921,-2.298011 1.119206,-5.998466 -0.448573,-7.932117 -1.000086,-0.06483 3.35331,-6.5388 -0.684887,-7.104041 -3.213695,-1.3728889 2.960737,-3.4744789 4.405687,-3.4081949 3.779262,-2.209361 1.524434,6.2941449 4.221472,1.120085 3.380721,-4.552385 8.402761,2.1720629 9.385101,1.193085 4.83535,-6.344283 11.634386,-0.110585 10.648726,6.4818919 2.58727,0.9397 -1.63467,3.636889 -0.33643,6.775366 -1.31054,3.376182 5.18933,3.262057 0.62481,5.079226 -1.9512,-0.487832 -9.831596,0.597892 -7.001026,-1.987388 2.00378,-1.362079 0.58245,-4.898341 1.0093,-7.230906 0.825,-3.655148 -1.31033,-11.6890549 -4.89832,-6.035776 -0.76939,4.034264 -0.20102,8.286142 -0.40454,12.412457 5.14202,2.656053 -2.55194,3.045179 -4.91034,2.710865 -3.001011,0.512641 -2.763739,-2.466098 -0.45659,-2.710865 -0.14589,-4.326966 0.34626,-8.730077 -0.36446,-12.992111 -3.677397,-4.5177649 -5.689969,2.93226 -4.919333,6.388309 0.232983,2.379717 -0.515041,5.088987 0.385445,7.244472 5.611378,1.310728 -3.574603,3.130869 -4.698027,1.643082 z M 98.475404,11.211856 c 0.82109,3.793702 0.35803,7.742167 0.48061,11.610527 1.514906,-2.824965 1.664826,-9.052455 -0.48061,-11.610527 z m -10.66977,0 c 0.8211,3.793699 0.35804,7.742167 0.48062,11.610527 1.51489,-2.824966 1.66485,-9.052479 -0.48062,-11.610527 z m -10.18915,11.610527 c 1.683865,-1.980241 0.897542,-12.137408 -1.8e-5,-10.477368 -0.869032,4.728883 -0.234565,5.401611 1.8e-5,10.477368 z m 41.381386,3.939908 c -4.99306,4.923783 -4.77166,-9.370253 -0.65681,-9.51854 -3.14561,5.913119 7.42586,12.725974 8.7633,4.619805 0.12236,-4.299236 -6.18441,-5.816483 -7.10116,-5.79219 -3.18056,-4.08511 -7.5757,-12.5282889 0.15619,-15.3455949 3.71936,-0.973502 8.37596,0.819419 10.54964,-0.427118 1.06807,2.316651 0.30924,10.5091459 -2.18282,7.609602 1.58589,-7.785204 -12.0382,-5.10578 -5.48207,0.562222 1.84396,2.8584599 5.0159,-0.801008 4.41269,3.0900369 4.58599,2.940985 7.1289,10.823912 1.99582,14.589428 -2.97076,2.28099 -7.26305,2.381079 -10.45478,0.612349 z m -1.0894,-21.1116339 c -1.67248,3.359031 3.3804,8.9645989 5.0746,9.0478439 3.60382,0.603335 5.86228,7.006133 6.23209,7.356819 1.06025,-5.306608 -4.86087,-7.098511 -7.74098,-10.008031 -1.73155,-1.631491 -3.57112,-3.7429749 -3.56571,-6.3966319 z m 19.96174,21.5823319 c -2.1935,2.343902 -5.52751,-2.238615 -1.60607,-1.669231 0.73155,-2.258477 1.16695,-5.994474 -0.39651,-7.910326 -0.31696,-0.73281 1.71692,-4.79237 0.9292,-7.7963489 -0.331,-2.28713 1.21608,-7.740469 -2.38708,-6.681944 -0.26204,-3.446791 5.41874,-2.997649 7.38953,-3.155414 0.8917,4.042251 0.18837,8.465121 0.41253,12.6650539 -0.54704,3.723595 0.58597,3.269241 2.53191,0.79324 1.86521,-1.592904 4.63033,-4.6795719 1.23296,-4.8114139 1.85917,-1.954603 7.31635,-2.227794 9.03566,0.08717 -1.04407,0.591922 -6.49914,2.4229729 -6.48036,5.2885579 1.9591,3.864038 3.45252,8.102892 5.75542,11.691403 4.19424,0.599 -1.39488,2.873355 -3.01589,1.908937 -2.39927,0.773493 -8.24675,-0.82444 -3.66073,-2.449367 -1.13212,-2.678906 -2.26425,-5.357812 -3.39638,-8.036717 -2.32699,1.187511 -2.13231,3.622987 -2.00259,6.026308 -0.9218,2.883374 4.39162,3.149154 0.27236,4.607958 -1.63258,-1.056952 -2.97954,0.830194 -4.61396,-0.557862 z m 1.34574,-10.581967 c -0.11401,-3.46776 0.37849,-7.0592639 -0.41256,-10.4207099 -1.12159,-0.315886 -0.18501,4.9945779 -0.50564,6.9002879 -0.72022,3.052727 -0.60164,7.460495 0.37952,9.255952 0.80999,-1.755577 0.43031,-3.841374 0.53868,-5.73553 z m 9.25995,6.171361 c 0.31407,-1.800909 -1.25585,-7.989285 -2.8997,-6.938423 0.96656,2.312808 1.93313,4.625615 2.8997,6.938423 z M 175.72707,9.4685331 c -5.2975,-1.363316 -3.32152,7.7948799 -4.85026,8.2677059 -2.85719,4.255639 -3.38014,9.956927 -5.75192,14.577441 -0.94476,7.045464 -12.19348,0.84263 -6.31565,-2.117044 2.74946,7.220875 7.79091,-1.884239 3.77796,-6.119094 -0.47246,-3.078773 -3.99877,-6.607005 -3.81401,-7.749055 0.98123,-3.812521 -2.73165,-7.1433789 -4.09732,-8.1500319 2.85912,-0.99874 7.72693,-1.782436 10.25322,0.418398 -3.05062,0.386246 -1.14832,4.0279349 -0.24709,6.6506509 0.74521,1.385865 1.53003,6.173749 2.24828,5.243662 1.09521,-3.488264 2.19042,-6.976526 3.28563,-10.464789 -1.50889,-0.7170089 -4.06565,-1.6998129 -0.86511,-2.8067489 1.50841,1.32413 7.37739,-1.91548 6.37627,2.248905 z m -15.4279,1.7433229 c -0.72009,4.149109 1.30563,6.100292 2.74766,9.77103 2.22245,4.025958 -0.28495,-4.165927 -1.27413,-5.971571 -0.49118,-1.266486 -0.98235,-2.532972 -1.47353,-3.799459 z"
       id="text1"
       style="fill:#eee8aa;fill-opacity:1" />
  </g>
</svg>
