<?xml version="1.0" encoding="UTF-8"?>
<svg style="height:512px;width:512px" version="1.1" viewBox="0 0 512 512" xmlns="http://www.w3.org/2000/svg">
 <g class="" transform="translate(0)" style="">
  <path d="m91.113 279.53c-2.0714 2.9154-4.1427 5.8317-6.2141 8.7472 8.4438 9.4893 16.887 18.98 25.331 28.469-7.6209 9.095-15.242 18.19-22.863 27.285 2.2696 1.9926 4.541 3.9838 6.8106 5.9764 7.6084-8.5506 15.217-17.1 22.826-25.651 7.5486 8.4832 15.098 16.966 22.647 25.449 2.0449-2.6311 4.0897-5.2637 6.1345-7.8948-7.3441-8.38-14.688-16.76-22.033-25.14 7.471-8.3963 14.942-16.792 22.413-25.188-2.4166-3.023-4.8339-6.046-7.2506-9.069-7.3617 8.7856-14.723 17.571-22.085 26.357-8.5717-9.7807-17.145-19.561-25.716-29.342zm-4.0283-195.89c-2.0714 2.9154-4.1427 5.8317-6.2141 8.7472 8.4438 9.4893 16.887 18.98 25.331 28.469-7.6209 9.095-15.242 18.19-22.863 27.285 2.2696 1.9926 4.541 3.9838 6.8106 5.9764 7.6084-8.5506 15.217-17.1 22.826-25.651 7.5486 8.4832 15.098 16.966 22.647 25.449 2.0449-2.6311 4.0897-5.2637 6.1345-7.8948-7.3441-8.38-14.688-16.76-22.033-25.14 7.471-8.3963 14.942-16.792 22.413-25.188-2.4166-3.023-4.8339-6.046-7.2506-9.069-7.3617 8.7856-14.723 17.571-22.085 26.357-8.5717-9.7807-17.145-19.561-25.716-29.342zm63.915 35.354v18h242v-18zm0 64v18h242v-18zm0 64v18h242v-18zm0 64v18h242v-18zm0 64v18h242v-18z" fill="#ffdf00" stroke-width="10.624" style="paint-order:markers fill stroke"/>
 </g>
</svg>
