<svg style="height: 100px; width: 100px;" xmlns="http://www.w3.org/2000/svg" viewBox="0 0 512 512"><g class="" style="" transform="translate(0,0)"><path d="M256 29.816l-231 154v106.368l231-154 231 154V183.816zm0 128.043L105 259.783v90.283l151-101.925 151 101.925v-90.283zm0 112l-87 58.725v67.6l87-58 87 58v-67.6zm0 89.957l-87 58v64.368l87-58 87 58v-64.368z" fill="#fb4934" fill-opacity="1"></path></g><g class="" style="" transform="translate(256,256)"><g><circle cx="128" cy="128" r="128" fill="#fb4934" fill-opacity="1"></circle><circle stroke="#000000" stroke-opacity="1" fill="#fb4934" fill-opacity="1" stroke-width="18" cx="128" cy="128" r="101"></circle><path fill="#000000" fill-opacity="1" d="M111.1 58.03h33.8v53.67l-4.8 39.2h-24.2l-4.8-39.2zm0 106.57h33.8V198h-33.8z"></path></g></g></svg>
